ply
format ascii 1.0
comment VCGLIB generated
element vertex 284
property float x
property float y
property float z
property float nx
property float ny
property float nz
property uchar red
property uchar green
property uchar blue
property uchar alpha
property float texture_u
property float texture_v
element face 500
property list uchar int vertex_indices
end_header
0 0 -0 0 0 1 195 195 195 255 9 0
17.21875 0 0 0 0 1 195 195 195 255 22 0
28.5 0 0 0 0 1 195 195 195 255 34 0
42.28125 0 0 0 0 1 195 195 195 255 48 0
62.21875 0 0 0 0 1 195 195 195 255 71 0
76.25 0 0 0 0 1 195 195 195 255 81 0
85.875 0 0 0 0 1 195 195 195 255 90 0
99.75 0 0 0 0 1 195 195 195 255 107 0
113.8438 0 0 0 0 1 195 195 195 255 120 0
133.1094 0 0 0 0 1 195 195 195 255 144 0
156.3438 0 0 0 0 1 195 195 195 255 166 0
173.3438 0 0 0 0 1 195 195 195 255 179 0
184.25 0 0 0 0 1 195 195 195 255 187 0
194 0 0 0 0 1 195 195 195 255 199 0
204.625 0 0 0 0 1 195 195 195 255 209 0
218.3906 0 0 0 0 1 195 195 195 255 231 0
235.9062 0 0 0 0 1 195 195 195 255 244 0
43.64606 6.932007 0 0 0 1 195 195 195 255 48 1
186.4062 1.625 0 0 0 1 195 195 195 255 189 1
243.7354 5.952637 0 0 0 1 195 195 195 255 251 1
179.5273 2.625 0 0 0 1 195 195 195 255 183 2
21.37207 3.774414 0 0 0 1 195 195 195 255 25 6
32.86816 7.578125 0 0 0 1 195 195 195 255 31 6
126.1071 7.828003 0 0 0 1 195 195 195 255 121 6
170.2959 5.963379 0 0 0 1 195 195 195 255 171 6
105.8828 4.751953 0 0 0 1 195 195 195 255 111 7
209.2402 4.41748 0 0 0 1 195 195 195 255 216 7
256 0 -0 0 0 1 195 195 195 255 256 7
89.06738 5.821289 0 0 0 1 195 195 195 255 88 9
198.3374 8.541016 0 0 0 1 195 195 195 255 199 10
149.723 7.224854 0 0 0 1 195 195 195 255 141 11
224.582 12.80859 0 0 0 1 195 195 195 255 220 11
62.03955 5.576172 0 0 0 1 195 195 195 255 60 12
0 23.48438 0 0 0 1 195 195 195 255 0 14
6.181152 9.268555 0 0 0 1 195 195 195 255 2 14
75.55225 8.18457 0 0 0 1 195 195 195 255 77 14
20.65332 18.24219 0 0 0 1 195 195 195 255 28 17
34.44922 21.46484 0 0 0 1 195 195 195 255 31 20
92.90771 19.57593 0 0 0 1 195 195 195 255 93 21
183.9824 18.43066 0 0 0 1 195 195 195 255 190 21
237.3848 18.10156 0 0 0 1 195 195 195 255 237 21
106.2212 22.28955 0 0 0 1 195 195 195 255 106 22
249.2793 18.39844 0 0 0 1 195 195 195 255 248 23
60.88647 23.81079 0 0 0 1 195 195 195 255 53 24
4.938843 28.03491 0 0 0 1 195 195 195 255 18 25
207.5175 24.2876 0 0 0 1 195 195 195 255 218 25
184.3457 33.50635 0 0 0 1 195 195 195 255 178 27
80.58887 24.15332 0 0 0 1 195 195 195 255 84 28
233.3718 27.56836 0 0 0 1 195 195 195 255 237 28
256 21.6875 0 0 0 1 195 195 195 255 256 29
28.05078 31.3418 0 0 0 1 195 195 195 255 24 31
43.88135 30.39795 0 0 0 1 195 195 195 255 47 32
251.0776 27.8291 0 0 0 1 195 195 195 255 244 32
146.6129 26.4541 0 0 0 1 195 195 195 255 147 33
217.5824 43.83008 0 0 0 1 195 195 195 255 219 33
0 41.0625 0 0 0 1 195 195 195 255 0 35
83.11963 38.64697 0 0 0 1 195 195 195 255 91 35
166.7838 30.16589 0 0 0 1 195 195 195 255 163 36
123.4011 29.7887 0 0 0 1 195 195 195 255 125 38
35.47607 46.19385 0 0 0 1 195 195 195 255 30 40
249.8682 45.43921 0 0 0 1 195 195 195 255 244 40
157.9536 50.17798 0 0 0 1 195 195 195 255 147 41
60.52979 45.61963 0 0 0 1 195 195 195 255 52 42
17.47021 39.72607 0 0 0 1 195 195 195 255 12 43
103.7402 37.8855 0 0 0 1 195 195 195 255 107 43
117.4906 53.69275 0 0 0 1 195 195 195 255 110 43
138.6248 48.81201 0 0 0 1 195 195 195 255 132 43
256 37.28125 0 0 0 1 195 195 195 255 256 44
177.4312 48.51465 0 0 0 1 195 195 195 255 169 45
0 56.90625 0 0 0 1 195 195 195 255 0 49
5.69165 50.25195 0 0 0 1 195 195 195 255 11 50
93.95117 52.83398 0 0 0 1 195 195 195 255 89 50
75.43311 52.95557 0 0 0 1 195 195 195 255 79 54
235.8701 47.19092 0 0 0 1 195 195 195 255 241 54
6.452637 68.85156 0 0 0 1 195 195 195 255 7 58
19.44482 60.96533 0 0 0 1 195 195 195 255 12 58
63.00781 66.521 0 0 0 1 195 195 195 255 71 58
33.9375 60.3125 0 0 0 1 195 195 195 255 28 59
47.68848 59.27637 0 0 0 1 195 195 195 255 44 59
150.2988 60.01758 0 0 0 1 195 195 195 255 153 62
256 55.25 0 0 0 1 195 195 195 255 256 63
100.4514 67.82617 0 0 0 1 195 195 195 255 93 64
211.457 66.75635 0 0 0 1 195 195 195 255 208 64
173.1118 62.96973 0 0 0 1 195 195 195 255 170 65
200.8536 51.59375 0 0 0 1 195 195 195 255 201 65
0 69.8125 0 0 0 1 195 195 195 255 0 67
190.988 63.77954 0 0 0 1 195 195 195 255 199 67
227.3145 63.57275 0 0 0 1 195 195 195 255 231 67
80.39648 69.06738 0 0 0 1 195 195 195 255 72 69
158.5098 70.00684 0 0 0 1 195 195 195 255 160 69
48.87793 82.88574 0 0 0 1 195 195 195 255 45 70
178.9705 81.6167 0 0 0 1 195 195 195 255 176 70
120.4121 72.42969 0 0 0 1 195 195 195 255 113 71
251.5303 62.1748 0 0 0 1 195 195 195 255 254 71
202.3281 78.52197 0 0 0 1 195 195 195 255 205 73
34.02246 71.54443 0 0 0 1 195 195 195 255 31 74
238.4131 75.0625 0 0 0 1 195 195 195 255 240 74
0 79.5625 0 0 0 1 195 195 195 255 0 75
20.07031 73.60986 0 0 0 1 195 195 195 255 22 76
114.1163 86.32178 0 0 0 1 195 195 195 255 112 77
141.7573 70.84192 0 0 0 1 195 195 195 255 133 78
165.4641 91.67578 0 0 0 1 195 195 195 255 168 78
129.0918 84.25928 0 0 0 1 195 195 195 255 123 80
73.12109 81.65234 0 0 0 1 195 195 195 255 77 81
95.53662 84.49756 0 0 0 1 195 195 195 255 103 81
220.8862 78.12891 0 0 0 1 195 195 195 255 224 81
256 75.28125 0 0 0 1 195 195 195 255 256 83
5.976562 82.76758 0 0 0 1 195 195 195 255 9 86
251.1335 88.13086 0 0 0 1 195 195 195 255 245 87
150.0574 86.39502 0 0 0 1 195 195 195 255 151 90
42.68848 102.0474 0 0 0 1 195 195 195 255 49 92
82.01648 98.89771 0 0 0 1 195 195 195 255 77 93
0 95.21875 0 0 0 1 195 195 195 255 0 97
62.87128 103.9159 0 0 0 1 195 195 195 255 62 97
26.48682 89.97998 0 0 0 1 195 195 195 255 28 98
24.11328 106.8105 0 0 0 1 195 195 195 255 27 99
212.6638 95.64209 0 0 0 1 195 195 195 255 206 99
154.3193 102.4531 0 0 0 1 195 195 195 255 156 100
228.0469 93.08008 0 0 0 1 195 195 195 255 230 100
256 93.5 0 0 0 1 195 195 195 255 256 101
8.162598 100.1113 0 0 0 1 195 195 195 255 6 102
207.7029 112.1404 0 0 0 1 195 195 195 255 203 102
0 110.0625 0 0 0 1 195 195 195 255 0 104
250.9332 102.4089 0 0 0 1 195 195 195 255 251 105
132.3691 99.06958 0 0 0 1 195 195 195 255 133 106
232.1924 109.1797 0 0 0 1 195 195 195 255 239 111
108.3367 104.4974 0 0 0 1 195 195 195 255 105 112
4.875 119.8369 0 0 0 1 195 195 195 255 2 115
256 108.9062 0 0 0 1 195 195 195 255 256 115
199.4399 132.1489 0 0 0 1 195 195 195 255 194 116
0 119.25 0 0 0 1 195 195 195 255 0 117
75.92993 122.7539 0 0 0 1 195 195 195 255 71 117
121.6849 126.4551 0 0 0 1 195 195 195 255 131 118
232.1519 130.4441 0 0 0 1 195 195 195 255 229 119
15.26367 119.3828 0 0 0 1 195 195 195 255 21 121
165.1511 115.6858 0 0 0 1 195 195 195 255 169 121
185.8694 107.1104 0 0 0 1 195 195 195 255 189 121
37.44824 117.252 0 0 0 1 195 195 195 255 46 125
96.96442 129.7499 0 0 0 1 195 195 195 255 96 125
246.5996 119.5742 0 0 0 1 195 195 195 255 240 126
7.521484 135.1553 0 0 0 1 195 195 195 255 8 127
144.0786 116.7295 0 0 0 1 195 195 195 255 145 127
2.53125 128.7969 0 0 0 1 195 195 195 255 2 128
256 122.2188 0 0 0 1 195 195 195 255 256 130
0 129.1875 0 0 0 1 195 195 195 255 0 131
249.3438 133.3662 0 0 0 1 195 195 195 255 254 131
54.55615 126.6885 0 0 0 1 195 195 195 255 46 132
0 143.3594 0 0 0 1 195 195 195 255 0 133
35.73755 132.7856 0 0 0 1 195 195 195 255 37 135
46.12598 143.2637 0 0 0 1 195 195 195 255 46 135
156.2417 130.5554 0 0 0 1 195 195 195 255 154 135
64.49121 143.9463 0 0 0 1 195 195 195 255 54 136
215.9663 132.0038 0 0 0 1 195 195 195 255 213 137
180.2974 133.9077 0 0 0 1 195 195 195 255 186 138
146.7908 143.1564 0 0 0 1 195 195 195 255 150 142
121.7886 153.7519 0 0 0 1 195 195 195 255 123 146
25.43408 147.4487 0 0 0 1 195 195 195 255 35 149
192.5742 151.3086 0 0 0 1 195 195 195 255 198 149
105.8125 145.4009 0 0 0 1 195 195 195 255 117 150
82.85925 146.1272 0 0 0 1 195 195 195 255 85 152
228.8789 152.248 0 0 0 1 195 195 195 255 230 153
164.9209 143.3086 0 0 0 1 195 195 195 255 164 154
165.4988 165.1235 0 0 0 1 195 195 195 255 169 154
176.6035 152.5977 0 0 0 1 195 195 195 255 174 154
256 145.4375 0 0 0 1 195 195 195 255 256 154
208.9326 150.5444 0 0 0 1 195 195 195 255 207 155
0 158.4375 0 0 0 1 195 195 195 255 0 156
5.430176 152.9365 0 0 0 1 195 195 195 255 8 156
214.1226 166.8638 0 0 0 1 195 195 195 255 215 156
25.27734 164.6096 0 0 0 1 195 195 195 255 17 159
52.5293 156.9521 0 0 0 1 195 195 195 255 50 159
41.15991 161.9482 0 0 0 1 195 195 195 255 41 163
77.58301 171.1836 0 0 0 1 195 195 195 255 83 164
246.9478 153.8782 0 0 0 1 195 195 195 255 240 164
3.621094 165.6133 0 0 0 1 195 195 195 255 9 165
197.6582 165.3633 0 0 0 1 195 195 195 255 193 165
94.19629 163.7651 0 0 0 1 195 195 195 255 97 166
231.9922 166.5078 0 0 0 1 195 195 195 255 235 166
142.4651 164.4517 0 0 0 1 195 195 195 255 152 167
0 171.4219 0 0 0 1 195 195 195 255 0 171
61.5791 167.2887 0 0 0 1 195 195 195 255 64 171
112.4236 171.9907 0 0 0 1 195 195 195 255 108 172
2.765625 175.6641 0 0 0 1 195 195 195 255 2 173
256 164.9531 0 0 0 1 195 195 195 255 256 173
249.7842 168.1631 0 0 0 1 195 195 195 255 253 174
13.63135 176.6538 0 0 0 1 195 195 195 255 17 176
93.63818 183.6726 0 0 0 1 195 195 195 255 103 178
37.4021 178.6619 0 0 0 1 195 195 195 255 34 179
187.2407 171.9727 0 0 0 1 195 195 195 255 195 180
0 183.875 0 0 0 1 195 195 195 255 0 181
203 182.8398 0 0 0 1 195 195 195 255 209 183
221.8157 184.4644 0 0 0 1 195 195 195 255 224 183
177.3564 181.3225 0 0 0 1 195 195 195 255 181 184
20.91797 191.2129 0 0 0 1 195 195 195 255 17 185
244.2988 180.9722 0 0 0 1 195 195 195 255 254 186
42.88062 200.3481 0 0 0 1 195 195 195 255 36 187
0 193.7812 0 0 0 1 195 195 195 255 0 188
124.3379 195.6023 0 0 0 1 195 195 195 255 132 188
139.4899 181.8563 0 0 0 1 195 195 195 255 140 189
209.9531 197.2539 0 0 0 1 195 195 195 255 212 190
86.39941 198.7534 0 0 0 1 195 195 195 255 92 191
8.087891 190.498 0 0 0 1 195 195 195 255 3 192
73.80176 188.5894 0 0 0 1 195 195 195 255 78 193
256 181.5 0 0 0 1 195 195 195 255 256 193
108.3274 191.0103 0 0 0 1 195 195 195 255 111 198
194.6157 193.2012 0 0 0 1 195 195 195 255 195 198
180.793 199.3882 0 0 0 1 195 195 195 255 179 200
58.24268 192.7581 0 0 0 1 195 195 195 255 57 202
141.1506 206.4148 0 0 0 1 195 195 195 255 136 202
0 208.9375 0 0 0 1 195 195 195 255 0 204
244.6775 197.6105 0 0 0 1 195 195 195 255 250 204
170.9854 211.4807 0 0 0 1 195 195 195 255 176 206
222.9419 209.2246 0 0 0 1 195 195 195 255 218 206
8.383057 209.2502 0 0 0 1 195 195 195 255 2 207
256 199.1406 0 0 0 1 195 195 195 255 256 208
160.1914 192.1267 0 0 0 1 195 195 195 255 163 209
70.5918 205.7871 0 0 0 1 195 195 195 255 67 210
208.3301 215.7783 0 0 0 1 195 195 195 255 209 210
251.8359 209.8789 0 0 0 1 195 195 195 255 249 211
89.51367 213.166 0 0 0 1 195 195 195 255 99 212
30.67407 207.9832 0 0 0 1 195 195 195 255 31 214
0 221.625 0 0 0 1 195 195 195 255 0 216
56.80664 215.5073 0 0 0 1 195 195 195 255 60 216
110.8242 212.7827 0 0 0 1 195 195 195 255 104 216
196.4131 210.3691 0 0 0 1 195 195 195 255 192 217
6.627563 230.7119 0 0 0 1 195 195 195 255 5 218
249.5723 222.0845 0 0 0 1 195 195 195 255 255 218
43.93811 222.2671 0 0 0 1 195 195 195 255 39 219
236.3193 216.9238 0 0 0 1 195 195 195 255 239 221
256 216.5 0 0 0 1 195 195 195 255 256 221
72.15234 218.0801 0 0 0 1 195 195 195 255 67 222
79.8927 233.0583 0 0 0 1 195 195 195 255 83 225
94.92432 229.458 0 0 0 1 195 195 195 255 96 226
21.42969 218.9946 0 0 0 1 195 195 195 255 24 227
124.0552 220.4204 0 0 0 1 195 195 195 255 120 227
222.7573 226.9097 0 0 0 1 195 195 195 255 227 227
0 239.3438 0 0 0 1 195 195 195 255 0 229
174.3257 228.9556 0 0 0 1 195 195 195 255 182 229
27.95703 233.1934 0 0 0 1 195 195 195 255 28 230
190.342 224.8789 0 0 0 1 195 195 195 255 191 230
112.5156 229.5242 0 0 0 1 195 195 195 255 117 233
237.6641 233.457 0 0 0 1 195 195 195 255 243 233
142.4614 230.8024 0 0 0 1 195 195 195 255 137 234
253.4541 234.9785 0 0 0 1 195 195 195 255 251 235
228.6938 245.9028 0 0 0 1 195 195 195 255 224 237
256 228.5312 0 0 0 1 195 195 195 255 256 237
44.29688 237.4199 0 0 0 1 195 195 195 255 36 238
28.7832 248.1895 0 0 0 1 195 195 195 255 32 239
64.98511 231.7886 0 0 0 1 195 195 195 255 62 239
211.3622 249.3213 0 0 0 1 195 195 195 255 213 240
160.4634 235.5989 0 0 0 1 195 195 195 255 156 242
249.3798 250.3574 0 0 0 1 195 195 195 255 246 242
256 240.125 0 0 0 1 195 195 195 255 256 242
127.603 241.8145 0 0 0 1 195 195 195 255 129 243
203.9878 234.5645 0 0 0 1 195 195 195 255 203 243
146.4407 249.832 0 0 0 1 195 195 195 255 139 245
0 256 -0 0 0 1 195 195 195 255 0 247
74.71094 249.7734 0 0 0 1 195 195 195 255 72 248
133.749 252.8584 0 0 0 1 195 195 195 255 134 248
38.37109 251.4512 0 0 0 1 195 195 195 255 36 249
53.06274 249.9155 0 0 0 1 195 195 195 255 49 249
94.8844 247.8351 0 0 0 1 195 195 195 255 99 251
109.5625 252.4585 0 0 0 1 195 195 195 255 102 251
123.5859 252.5664 0 0 0 1 195 195 195 255 122 251
67.2749 251.8232 0 0 0 1 195 195 195 255 60 252
167.7722 250.5737 0 0 0 1 195 195 195 255 158 253
192.1628 247.1931 0 0 0 1 195 195 195 255 195 254
14.49023 246.2307 0 0 0 1 195 195 195 255 14 255
15.5 256 0 0 0 1 195 195 195 255 11 256
29.04688 256 0 0 0 1 195 195 195 255 25 256
46.8125 256 0 0 0 1 195 195 195 255 41 256
60.875 256 0 0 0 1 195 195 195 255 56 256
73.8125 256 0 0 0 1 195 195 195 255 70 256
85.53125 256 0 0 0 1 195 195 195 255 88 256
97.34375 256 0 0 0 1 195 195 195 255 92 256
114.0312 256 0 0 0 1 195 195 195 255 106 256
129.9219 256 0 0 0 1 195 195 195 255 125 256
142.4375 256 0 0 0 1 195 195 195 255 140 256
159.1953 256 0 0 0 1 195 195 195 255 148 256
179.75 256 0 0 0 1 195 195 195 255 175 256
198.4531 256 0 0 0 1 195 195 195 255 194 256
220.9531 256 0 0 0 1 195 195 195 255 209 256
239.375 256 0 0 0 1 195 195 195 255 233 256
256 256 -0 0 0 1 195 195 195 255 245 256
3 0 1 34 
3 1 21 34 
3 1 2 21 
3 2 22 21 
3 2 3 22 
3 3 17 22 
3 3 4 17 
3 4 32 17 
3 4 5 32 
3 5 35 32 
3 5 6 35 
3 6 28 35 
3 6 7 28 
3 7 25 28 
3 7 8 25 
3 8 23 25 
3 8 9 23 
3 9 30 23 
3 9 10 30 
3 10 24 30 
3 10 11 24 
3 11 20 24 
3 11 12 20 
3 12 18 20 
3 12 13 18 
3 13 29 18 
3 13 14 29 
3 14 26 29 
3 14 15 26 
3 15 31 26 
3 15 16 31 
3 16 19 31 
3 16 27 19 
3 20 18 39 
3 18 29 39 
3 25 23 41 
3 20 39 24 
3 17 32 43 
3 28 25 38 
3 19 40 31 
3 34 21 36 
3 32 35 43 
3 30 53 23 
3 24 57 30 
3 0 34 33 
3 26 45 29 
3 21 22 36 
3 26 31 45 
3 19 27 42 
3 25 41 38 
3 24 39 57 
3 27 49 42 
3 22 37 36 
3 35 28 47 
3 22 17 37 
3 28 38 47 
3 23 53 58 
3 29 45 39 
3 40 19 42 
3 34 36 44 
3 35 47 43 
3 23 58 41 
3 34 44 33 
3 17 43 51 
3 31 40 48 
3 17 51 37 
3 42 49 52 
3 30 57 53 
3 57 39 46 
3 31 48 45 
3 40 42 48 
3 42 52 48 
3 36 37 50 
3 45 46 39 
3 36 63 44 
3 45 48 54 
3 36 50 63 
3 37 51 50 
3 47 38 56 
3 41 58 64 
3 49 67 52 
3 38 64 56 
3 38 41 64 
3 43 47 56 
3 33 44 55 
3 52 60 48 
3 48 73 54 
3 48 60 73 
3 50 51 59 
3 46 68 57 
3 52 67 60 
3 43 62 51 
3 53 57 61 
3 46 45 84 
3 51 62 59 
3 43 56 62 
3 58 65 64 
3 45 54 84 
3 63 50 59 
3 44 63 70 
3 44 70 55 
3 53 66 58 
3 46 84 68 
3 62 56 72 
3 61 66 53 
3 57 68 61 
3 56 64 71 
3 67 80 60 
3 62 78 59 
3 58 66 65 
3 55 70 69 
3 63 59 75 
3 56 71 72 
3 64 65 71 
3 63 75 70 
3 62 76 78 
3 61 79 66 
3 54 73 87 
3 73 60 93 
3 70 75 74 
3 62 72 76 
3 68 86 83 
3 68 84 86 
3 60 80 93 
3 59 78 77 
3 72 71 88 
3 66 100 65 
3 61 68 83 
3 75 59 77 
3 54 82 84 
3 54 87 82 
3 70 74 69 
3 66 79 100 
3 71 81 88 
3 71 65 81 
3 73 93 87 
3 77 78 95 
3 79 61 89 
3 72 88 76 
3 61 83 89 
3 77 95 75 
3 80 106 93 
3 69 74 85 
3 84 82 86 
3 87 93 96 
3 75 95 98 
3 78 76 90 
3 79 89 100 
3 74 75 98 
3 78 90 95 
3 65 92 81 
3 65 100 92 
3 83 91 89 
3 86 82 94 
3 83 86 91 
3 87 96 105 
3 87 105 82 
3 85 74 97 
3 88 103 76 
3 81 92 99 
3 89 109 100 
3 93 106 96 
3 89 91 101 
3 82 105 94 
3 74 98 107 
3 88 81 104 
3 86 94 91 
3 96 106 108 
3 98 95 114 
3 88 104 103 
3 92 102 99 
3 92 100 102 
3 95 90 114 
3 81 99 104 
3 94 105 116 
3 76 103 90 
3 89 101 109 
3 74 107 97 
3 107 98 120 
3 98 114 120 
3 100 109 102 
3 106 119 108 
3 97 107 112 
3 102 109 124 
3 105 96 118 
3 90 103 113 
3 105 118 116 
3 107 120 112 
3 103 104 111 
3 102 124 99 
3 103 111 113 
3 99 126 104 
3 94 136 91 
3 96 108 118 
3 94 116 136 
3 108 119 123 
3 90 113 110 
3 114 90 110 
3 91 136 101 
3 104 126 111 
3 118 108 123 
3 99 124 126 
3 101 117 109 
3 120 114 115 
3 114 110 115 
3 109 117 124 
3 136 116 121 
3 118 123 125 
3 118 125 116 
3 124 117 141 
3 119 128 123 
3 112 120 122 
3 101 135 117 
3 115 110 137 
3 113 111 131 
3 117 135 141 
3 101 136 135 
3 116 125 121 
3 123 128 139 
3 111 126 138 
3 126 124 132 
3 115 134 120 
3 111 138 131 
3 110 113 137 
3 120 127 122 
3 124 141 132 
3 136 121 129 
3 128 143 139 
3 122 127 130 
3 120 134 127 
3 115 137 134 
3 125 133 121 
3 125 123 139 
3 125 139 133 
3 113 146 137 
3 113 131 146 
3 121 133 152 
3 136 129 153 
3 139 143 145 
3 130 127 144 
3 134 137 148 
3 135 150 141 
3 136 153 135 
3 129 121 152 
3 127 134 140 
3 127 142 144 
3 126 132 138 
3 127 140 142 
3 141 150 154 
3 137 146 148 
3 135 153 150 
3 134 148 140 
3 139 145 133 
3 143 164 145 
3 142 140 144 
3 131 138 159 
3 132 141 154 
3 144 140 147 
3 146 131 151 
3 138 132 158 
3 153 161 150 
3 148 146 149 
3 146 151 149 
3 151 131 159 
3 132 154 155 
3 140 148 156 
3 150 161 154 
3 132 155 158 
3 161 153 163 
3 145 173 133 
3 129 152 165 
3 140 167 147 
3 129 157 153 
3 140 156 167 
3 133 160 152 
3 138 158 159 
3 145 164 173 
3 153 157 163 
3 148 149 156 
3 129 165 157 
3 156 169 167 
3 149 171 156 
3 133 173 160 
3 151 170 149 
3 152 160 165 
3 159 158 176 
3 155 154 178 
3 161 163 162 
3 149 170 171 
3 161 162 154 
3 165 160 168 
3 164 183 173 
3 147 167 166 
3 158 155 181 
3 165 168 157 
3 158 181 176 
3 170 151 180 
3 151 159 180 
3 167 174 166 
3 154 162 178 
3 163 157 188 
3 157 175 188 
3 160 173 177 
3 156 171 169 
3 157 168 175 
3 170 180 171 
3 176 172 159 
3 163 188 162 
3 166 174 179 
3 160 177 168 
3 159 172 180 
3 173 183 184 
3 167 169 174 
3 173 184 177 
3 172 176 186 
3 155 178 198 
3 174 182 179 
3 174 169 185 
3 169 171 187 
3 171 180 187 
3 155 198 181 
3 177 184 194 
3 174 185 182 
3 162 188 192 
3 162 215 178 
3 168 190 175 
3 176 181 186 
3 175 190 188 
3 168 177 191 
3 183 203 184 
3 162 192 215 
3 177 194 191 
3 184 203 194 
3 180 172 207 
3 180 207 187 
3 172 186 202 
3 178 215 198 
3 168 191 190 
3 179 182 189 
3 182 201 189 
3 182 185 201 
3 169 187 185 
3 181 198 197 
3 172 202 207 
3 181 204 186 
3 188 190 205 
3 185 193 201 
3 185 187 193 
3 188 205 192 
3 191 199 190 
3 189 201 196 
3 181 197 204 
3 194 210 191 
3 187 207 195 
3 194 203 210 
3 187 195 193 
3 197 198 208 
3 190 199 205 
3 192 206 215 
3 198 215 208 
3 186 200 202 
3 192 205 206 
3 191 212 199 
3 203 214 210 
3 201 193 213 
3 200 186 204 
3 207 202 216 
3 202 200 216 
3 201 213 196 
3 195 220 193 
3 193 220 213 
3 206 211 215 
3 191 210 212 
3 205 224 206 
3 196 213 209 
3 200 204 219 
3 205 199 224 
3 210 214 218 
3 207 216 222 
3 220 233 213 
3 207 222 195 
3 199 212 217 
3 200 219 216 
3 197 223 204 
3 199 217 224 
3 210 218 228 
3 214 229 218 
3 197 234 223 
3 197 208 234 
3 210 228 212 
3 216 230 222 
3 216 219 230 
3 204 223 219 
3 206 224 239 
3 220 195 227 
3 195 222 227 
3 215 211 208 
3 206 239 211 
3 212 235 217 
3 209 213 221 
3 208 211 250 
3 218 229 226 
3 219 240 232 
3 219 223 240 
3 228 218 226 
3 213 225 221 
3 223 234 240 
3 208 250 242 
3 250 211 237 
3 224 217 239 
3 212 228 235 
3 230 219 231 
3 222 230 248 
3 219 232 231 
3 211 239 237 
3 229 245 226 
3 217 235 254 
3 213 233 225 
3 220 227 233 
3 239 217 254 
3 227 238 233 
3 222 248 227 
3 230 231 248 
3 228 241 235 
3 234 208 242 
3 228 226 241 
3 221 225 236 
3 233 238 225 
3 239 266 237 
3 226 245 243 
3 232 240 261 
3 226 243 241 
3 246 227 248 
3 235 241 244 
3 238 227 246 
3 234 242 253 
3 235 249 254 
3 234 253 240 
3 235 244 249 
3 232 261 231 
3 239 254 266 
3 243 251 241 
3 245 252 243 
3 246 247 238 
3 242 255 253 
3 237 265 250 
3 243 252 251 
3 225 238 267 
3 237 266 265 
3 238 247 267 
3 246 248 260 
3 248 264 260 
3 242 250 255 
3 231 257 248 
3 231 261 257 
3 241 251 244 
3 252 283 251 
3 248 257 264 
3 240 262 261 
3 240 253 262 
3 253 255 258 
3 266 254 249 
3 225 267 236 
3 247 246 259 
3 236 267 256 
3 246 260 259 
3 253 263 262 
3 253 258 263 
3 250 265 255 
3 267 268 256 
3 267 269 268 
3 267 247 269 
3 247 259 269 
3 259 270 269 
3 259 260 270 
3 260 271 270 
3 260 264 271 
3 264 272 271 
3 264 257 272 
3 257 273 272 
3 257 261 273 
3 261 274 273 
3 261 262 274 
3 262 275 274 
3 262 263 275 
3 263 276 275 
3 263 258 276 
3 258 277 276 
3 258 255 277 
3 255 278 277 
3 255 265 278 
3 265 279 278 
3 265 266 279 
3 266 280 279 
3 266 249 280 
3 249 281 280 
3 249 244 281 
3 244 282 281 
3 244 251 282 
3 251 283 282 
